<?xml version="1.0" encoding="utf-8"?>
<!-- Generator: Adobe Illustrator 25.4.1, SVG Export Plug-In . SVG Version: 6.00 Build 0)  -->
<svg version="1.1" id="Layer_1" xmlns="http://www.w3.org/2000/svg" xmlns:xlink="http://www.w3.org/1999/xlink" x="0px" y="0px"
	 viewBox="0 0 500 75" style="enable-background:new 0 0 500 75;" xml:space="preserve">
<style type="text/css">
	.st0{fill:#2F6081;}
	.st1{fill:#F58220;}
</style>
<g>
	<path class="st0" d="M145.8,2.1c-1-0.7-2.1-1-3.3-1c-1.3,0-2.5,0.3-3.4,1L139,2.2c-1.1,0.9-1.7,2.2-1.7,3.7v64.1
		c0,1.5,0.6,2.7,1.6,3.7l0.1,0.1c1,0.8,2.2,1.2,3.5,1.2c1.3,0,2.4-0.4,3.4-1.2c1.2-0.9,1.9-2.2,1.9-3.7V5.9
		C147.7,4.4,147.1,3,145.8,2.1"/>
	<path class="st0" d="M176.1,65.8c-4.6,0-8.2-1.8-10.8-5.5c-2.3-3.4-3.5-7.8-3.5-13.1c0-5.3,1.2-9.8,3.5-13.2
		c2.6-3.7,6.1-5.5,10.8-5.5c4.6,0,8,1.8,10.6,5.6c2.4,3.4,3.6,7.9,3.6,13.2c0,5.2-1.2,9.6-3.7,13.1C184.2,64,180.7,65.8,176.1,65.8
		 M176.1,19.4c-7.7,0-13.8,2.9-18.2,8.7c-3.8,5-5.7,11.4-5.7,19c0,7.5,1.9,13.9,5.7,18.9c4.4,5.9,10.5,8.8,18.2,8.8
		c7.7,0,13.8-3,18.1-8.8c3.8-5,5.8-11.4,5.8-18.9c0-7.6-1.9-14-5.8-19C189.9,22.4,183.8,19.4,176.1,19.4"/>
	<path class="st0" d="M227.9,65.8c-4.6,0-8.2-1.8-10.8-5.5c-2.3-3.4-3.5-7.8-3.5-13.1c0-5.3,1.2-9.8,3.5-13.2
		c2.6-3.7,6.1-5.5,10.8-5.5c4.6,0,8,1.8,10.6,5.6c2.4,3.4,3.6,7.8,3.6,13.2c0,5.2-1.2,9.6-3.7,13.1C236,64,232.5,65.8,227.9,65.8
		 M227.9,19.4c-7.7,0-13.8,2.9-18.2,8.7c-3.8,5-5.7,11.4-5.7,19c0,7.5,1.9,13.9,5.7,18.9c4.4,5.9,10.5,8.8,18.2,8.8
		c7.7,0,13.8-3,18.1-8.8c3.8-5,5.8-11.4,5.8-18.9c0-7.6-1.9-14-5.8-19C241.7,22.4,235.6,19.4,227.9,19.4"/>
	<path class="st0" d="M278.6,67L278.6,67c-1-0.9-2.2-1.3-3.5-1.3h-3.2c-0.9,0-1.2-0.3-1.5-0.6c-0.2-0.2-0.4-0.6-0.4-1.4V29.8h5.3
		c2.7,0,4.3-1.7,4.3-4.6c0-2.8-1.7-4.5-4.3-4.5H270V10.3c0-1.9-0.9-3.1-1.7-3.7c-0.9-0.7-2-1.1-3.2-1.1c-1.2,0-2.3,0.4-3.2,1.1
		l-0.1,0.1c-0.7,0.6-1.5,1.7-1.5,3.6v10.5h-2.8c-2,0-4.1,1.2-4.1,4.5c0,3.4,2.1,4.6,4.1,4.6h2.8V64c0,2.8,0.9,5.3,2.6,7.3
		c1.9,2.3,4.6,3.5,8,3.5h4.2c1.4,0,2.6-0.5,3.5-1.4c0.9-0.9,1.3-2,1.3-3.2C279.9,68.9,279.4,67.8,278.6,67"/>
	<path class="st1" d="M319.9,20.4c5.5,0,10.1,1.3,13.9,4c3.1,2.3,5.1,5.1,6.1,8.5c0.2,0.8,0,1.6-0.5,2.2c-0.4,0.6-1.1,1-1.9,1.2
		c-0.9,0.2-1.7,0.1-2.4-0.2c-0.8-0.4-1.3-1-1.5-1.9c-0.9-3-2.5-5.2-4.8-6.6c-2.3-1.3-5.4-2-9.3-2c-5.3,0-9.5,2.3-12.3,6.8
		c-2.6,3.9-3.9,9-3.9,15.1c0,6.3,1.3,11.4,3.9,15.3c2.8,4.3,6.9,6.5,12.3,6.5c4.5,0,7.9-0.7,10.2-2.1c2.3-1.4,4.1-3.7,5.2-7
		c0.3-0.9,0.8-1.5,1.7-1.9c0.8-0.3,1.5-0.4,2.4-0.2c0.9,0.2,1.5,0.6,1.9,1.2c0.4,0.6,0.5,1.4,0.1,2.4c-1.9,4-4.2,7-6.9,9
		c-3.6,2.6-8.3,3.9-14.1,3.9c-7.6,0-13.4-2.7-17.3-8.2c-3.5-4.8-5.2-11-5.2-18.9c0-7.6,1.8-13.8,5.4-18.9
		C306.8,23.2,312.5,20.4,319.9,20.4"/>
	<path class="st1" d="M354.4,32.4c-2.7,4-4.1,9.1-4.1,15.2c0,6,1.4,11.1,4.1,15.1c3.1,4.5,7.5,6.8,13.1,6.8c5.5,0,9.8-2.3,12.9-6.8
		c2.8-4.1,4.2-9.1,4.2-15.1c0-6.1-1.4-11.2-4.2-15.2c-3.1-4.5-7.4-6.8-12.9-6.8C361.9,25.7,357.5,27.9,354.4,32.4 M385,28.8
		c3.8,5,5.7,11.2,5.7,18.8c0,7.5-1.9,13.7-5.7,18.7c-4.2,5.7-10,8.5-17.5,8.5c-7.5,0-13.3-2.8-17.6-8.5c-3.7-5-5.6-11.2-5.6-18.7
		c0-7.6,1.9-13.8,5.6-18.8c4.2-5.6,10.1-8.4,17.6-8.4C374.9,20.4,380.7,23.2,385,28.8"/>
	<path class="st1" d="M408.4,23.2c0-1.8,0.9-2.7,2.6-2.7h32.3c2.7,0,4.5,0.8,5.3,2.3c0.8,1.6,0.4,3.2-1.1,5L415.1,69h32.2
		c0.9,0,1.7,0.3,2.2,0.8c0.5,0.5,0.8,1.2,0.8,2c0,0.7-0.3,1.4-0.8,1.9c-0.5,0.6-1.3,0.9-2.2,0.9h-34.7c-2.6,0-4.3-0.9-5.1-2.8
		c-0.8-1.8-0.4-3.6,1.2-5.3L440.3,26h-29.2C409.3,26,408.4,25.1,408.4,23.2"/>
	<path class="st1" d="M488.2,44.6c-0.9,0.8-2.4,1.5-4.6,2.2c-2.7,0.8-6.4,1.6-11.2,2.2c-4.7,0.6-8.1,1.9-10,3.6
		c-1.9,1.7-2.8,4.1-2.8,7.4c0,3.1,0.9,5.5,2.7,7c1.8,1.7,4.7,2.5,8.5,2.5c4.4,0,8.1-0.8,11.2-2.5c2.8-1.5,4.9-3.5,6.3-6.1V44.6z
		 M488.5,23.4c3.7,2.4,5.5,6.2,5.5,11.2V65c0,1.1,0.1,2.9,0.7,3.5c0.6,0.6,1.5,1,2.7,1c0.8,0,1.4,0.3,1.9,0.8
		c0.4,0.5,0.7,1.1,0.8,1.9c0,0.7-0.2,1.3-0.7,1.8c-0.5,0.6-1.2,0.9-2.1,0.9c-3.6,0-6.1-0.4-7.5-1.3c-1.1-0.8-1.5-3.2-1.5-5.2
		c-1.9,1.9-4,3.3-6.4,4.4c-3.3,1.5-7,2.2-11.2,2.2c-5.7,0-10-1.3-12.9-4c-2.8-2.5-4.3-6.2-4.3-10.8c0-4.2,1-7.5,2.9-9.8
		c2.9-3.3,8.2-5.5,15.8-6.4c6.8-1,11.1-2,13.1-3.1c1.9-1,2.8-2.9,2.8-5.6c0-3.1-1-5.5-3.1-7.1c-2.2-1.7-5.5-2.5-9.9-2.5
		c-4.3,0-7.5,1-9.7,2.9c-1.9,1.7-3,4.1-3.3,7.3c-0.1,0.8-0.5,1.5-1.2,1.9c-0.6,0.4-1.3,0.6-2.1,0.6c-0.8-0.1-1.4-0.4-1.9-1
		c-0.6-0.6-0.8-1.3-0.6-2.3c0.8-4.9,2.8-8.6,6.1-11.1c3.2-2.4,7.5-3.5,12.8-3.5C480.9,20.3,485.3,21.3,488.5,23.4"/>
	<path class="st1" d="M61,37.6c0,12.1-10.2,21.9-22.7,21.9c-12.5,0-22.7-9.8-22.7-21.9c0-12.1,10.2-21.9,22.7-21.9
		C50.8,15.7,61,25.5,61,37.6"/>
	<path class="st1" d="M112,37.6c0,12.1-10.2,21.9-22.7,21.9c-12.5,0-22.7-9.8-22.7-21.9c0-12.1,10.2-21.9,22.7-21.9
		C101.9,15.7,112,25.5,112,37.6"/>
	<path class="st0" d="M117.2,64.9H37.9h-0.3c-8.1,0-14.7-2.5-19.5-7.3c-5.1-5.1-8.1-13-8.1-21V10.1h79.3h0.3
		c8.1,0,14.7,2.5,19.5,7.3c5.1,5.1,8.1,13,8.1,21V64.9z M127.2,64.9L127.2,64.9l0-26.6c0-10.7-4.1-21.2-11.1-28.1
		C109.4,3.5,100.3,0,89.6,0c-0.1,0-0.3,0-0.4,0H0v37c0.1,10.5,4.2,20.9,11.1,27.7C17.8,71.5,26.9,75,37.6,75c0.1,0,0.3,0,0.4,0h89.3
		V64.9z"/>
	<path class="st1" d="M294.7,70.2c0,2.6-2,4.6-4.6,4.6c-2.5,0-4.6-2.1-4.6-4.6c0-2.6,2-4.6,4.6-4.6
		C292.6,65.5,294.7,67.6,294.7,70.2"/>
	<path class="st1" d="M401.6,70.2c0,2.6-2,4.6-4.6,4.6c-2.5,0-4.6-2.1-4.6-4.6c0-2.6,2-4.6,4.6-4.6
		C399.6,65.5,401.6,67.6,401.6,70.2"/>
</g>
</svg>
