<?xml version="1.0" encoding="utf-8"?>
<!-- Generator: Adobe Illustrator 28.1.0, SVG Export Plug-In . SVG Version: 6.00 Build 0)  -->
<svg version="1.1" id="Layer_1" xmlns="http://www.w3.org/2000/svg" xmlns:xlink="http://www.w3.org/1999/xlink" x="0px" y="0px"
	 width="235.3px" height="55px" viewBox="0 0 235.3 55" style="enable-background:new 0 0 235.3 55;" xml:space="preserve">
<style type="text/css">
	.st0{fill:#363636;}
	.st1{fill:#008575;}
</style>
<path class="st0" d="M59.7,39v2.6c-1.1,0.1-2.1,0.2-2.9,0.2c-3.9,0-5.9-2.1-5.9-6.3V22.8h-3.6v-2.5H51l0.1-5.3l2.9-0.3v5.5h7.2v2.5
	H54v13.2c0,2.2,1.1,3.2,3.2,3.2C58,39.2,58.8,39.1,59.7,39z"/>
<path class="st0" d="M79.1,41.2H76V28.5c0-1.5-0.1-2.6-0.3-3.4c-0.2-0.8-0.6-1.4-1.3-1.9c-0.7-0.5-1.5-0.8-2.3-0.8
	c-1.6,0-3,0.7-4.1,2.1s-1.6,3.2-1.6,5.5v11.3h-3.1V12.9h3.1v11.2c1.4-3,3.5-4.5,6.1-4.5c1.2,0,2.3,0.2,3.2,0.7
	c0.9,0.5,1.6,1.1,2.1,1.9s0.8,1.6,1,2.3c0.2,0.8,0.3,2.1,0.3,3.9C79.1,28.4,79.1,41.2,79.1,41.2z"/>
<path class="st0" d="M85.9,41.2h-3.1v-21h2.8v4.9c1-2.3,1.9-3.8,2.9-4.5s2-1,3-1c0.3,0,0.7,0,1.2,0.1v3.1h-0.6c-1.7,0-3.2,0.7-4.3,2
	c-1.1,1.3-1.8,3.1-1.9,5.3V41.2z"/>
<path class="st0" d="M98.8,14.2v3.6h-3.4v-3.6L98.8,14.2z M98.7,20.2v20.9h-3.1V20.2H98.7z"/>
<path class="st0" d="M115.4,20.2v2.5h-6.8v18.4h-3.1V22.8h-4.3v-2.5h4.3c0-3.4,0.7-5.5,1.9-6.5c1.2-1,2.7-1.5,4.4-1.5
	c0.8,0,1.8,0.1,2.9,0.3v2.6c-0.7-0.2-1.3-0.3-1.9-0.3c-1.4,0-2.4,0.3-3,0.9c-0.7,0.6-1,1.8-1,3.5v0.8h6.6V20.2z"/>
<path class="st0" d="M127.6,39v2.6c-1.1,0.1-2.1,0.2-2.9,0.2c-3.9,0-5.9-2.1-5.9-6.3V22.8h-3.6v-2.5h3.6L119,15l2.9-0.3v5.5h6.9v2.5
	H122v13.2c0,2.2,1.1,3.2,3.3,3.2C125.9,39.2,126.7,39.1,127.6,39z"/>
<path class="st0" d="M132.8,41.2h-2.1V12.9h4.6v10.2c0.9-1.6,1.7-2.6,2.6-3.1c0.9-0.5,1.9-0.8,3.1-0.8c2.2,0,4.1,1,5.5,2.9
	c1.5,1.9,2.2,4.7,2.2,8.1c0,3.1-0.7,5.8-2.2,8c-1.4,2.2-3.5,3.3-6.2,3.3s-4.8-1.3-6.3-3.9L132.8,41.2z M135.3,32.2
	c0,1.9,0.4,3.2,1.2,4.1c0.8,0.9,1.8,1.3,3.1,1.3c1.2,0,2.2-0.5,3-1.5s1.2-3,1.3-6c0-2.2-0.4-3.9-1.1-5c-0.7-1.2-1.8-1.8-3.1-1.8
	c-1.2,0-2.3,0.5-3.1,1.5s-1.2,2.4-1.2,4.3L135.3,32.2z"/>
<path class="st0" d="M160.1,41.6c-3,0-5.3-1.1-6.9-3.3c-1.6-2.2-2.4-4.8-2.4-7.7c0-3.1,0.9-5.7,2.6-7.7c1.7-2.1,4.1-3.1,6.9-3.1
	c2.7,0,5,1,6.7,3s2.6,4.6,2.6,7.8c0,3.3-0.9,6-2.7,8C165.2,40.6,162.9,41.6,160.1,41.6z M160.2,37.7c3.1,0,4.6-2.4,4.6-7.1
	c0-2.2-0.4-3.8-1.1-5.1c-0.8-1.2-1.9-1.9-3.4-1.9c-1.6,0-2.7,0.6-3.5,1.9s-1.1,3-1.1,5.1c0,2.3,0.4,4,1.2,5.2
	C157.7,37.1,158.9,37.7,160.2,37.7z"/>
<path class="st0" d="M181.1,41.6c-3,0-5.3-1.1-6.9-3.3c-1.6-2.2-2.4-4.8-2.4-7.7c0-3.1,0.9-5.7,2.6-7.7c1.7-2.1,4.1-3.1,6.9-3.1
	c2.7,0,4.9,1,6.7,3s2.6,4.6,2.6,7.8c0,3.3-0.9,6-2.7,8S183.9,41.6,181.1,41.6z M181.3,37.7c3.1,0,4.6-2.4,4.6-7.1
	c0-2.2-0.4-3.8-1.1-5.1c-0.7-1.2-1.9-1.9-3.4-1.9c-1.6,0-2.7,0.6-3.5,1.9s-1.1,3-1.1,5.1c0,2.3,0.4,4,1.2,5.2
	C178.8,37.1,179.9,37.7,181.3,37.7z"/>
<path class="st0" d="M211.8,41.2H207l-5.2-10.7l-4.5,5.2v5.5H193V12.9h4.4v17.5c0.4-0.5,0.7-0.9,0.9-1.2l8-9h4.9l-6.1,6.9
	L211.8,41.2z"/>
<path class="st0" d="M211.7,36.4l4.3-0.8c0.7,1.7,2.1,2.5,4.3,2.5c2.8,0,4.2-0.8,4.2-2.6c0-0.6-0.2-1-0.7-1.4
	c-0.4-0.4-1-0.6-1.6-0.7l-3.7-0.7c-4.1-0.8-6.1-2.9-6.1-6.2c0-1.8,0.7-3.4,1.9-4.7c1.3-1.3,3.2-1.9,5.8-1.9c4.3,0,6.9,1.6,7.8,4.9
	l-4.1,0.8c-0.4-1.6-1.6-2.4-3.7-2.4c-2.4,0-3.7,0.8-3.7,2.4c0,1.1,1,1.8,3,2.3l4.4,0.9c3.4,0.7,5.1,2.7,5.1,6c0,2.3-0.9,4-2.6,5.2
	c-1.7,1.1-3.8,1.7-6.2,1.7c-2.1,0-3.9-0.4-5.5-1.3C213.2,39.4,212.2,38.1,211.7,36.4z"/>
<path class="st1" d="M12.8,17.3l2-12c0.1-0.4-0.2-0.8-0.6-0.9L6.7,3.1c0,0-0.1,0-0.1,0.1L4.5,15.6L12.8,17.3z"/>
<path class="st1" d="M4.3,17.3L0,42.5c0,0,0,0.1,0.1,0.1L7.6,44c0.4,0,0.7-0.3,0.8-0.7l4.2-24.6L4.3,17.3z"/>
<path class="st1" d="M39.2,42.4l-3.4-29.9l-6.4,0.8l0.6,4.8l2.9-0.3l0.3,2.2l-2.9,0.3L33,43.9l5.7-0.7
	C38.9,43.2,39.2,42.8,39.2,42.4z"/>
<path class="st1" d="M14.7,33.7l11.9,0.2v-1.6H14.7V33.7z"/>
<path class="st1" d="M26.6,36.8v-1.6H14.7v1.5L26.6,36.8z"/>
<path class="st1" d="M26.6,43.9v-5.5L14.7,38v5.9H26.6z"/>
<path class="st1" d="M26.6,0v31H14.7l0.1-30.7L26.6,0z"/>
<g>
	<path class="st0" d="M234.398,22.498c0,0.711-0.253,1.321-0.759,1.83c-0.506,0.51-1.113,0.765-1.821,0.765
		c-0.713,0-1.324-0.255-1.832-0.765c-0.508-0.51-0.762-1.121-0.762-1.834s0.253-1.323,0.761-1.832
		c0.507-0.508,1.121-0.762,1.841-0.762c0.708,0,1.314,0.254,1.818,0.762C234.146,21.171,234.398,21.783,234.398,22.498z
		 M233.935,22.495c0-0.596-0.207-1.108-0.622-1.536c-0.415-0.428-0.912-0.642-1.491-0.642c-0.591,0-1.095,0.213-1.511,0.64
		c-0.416,0.427-0.624,0.94-0.624,1.538c0,0.604,0.209,1.118,0.626,1.544c0.417,0.426,0.917,0.639,1.502,0.639
		c0.579,0,1.077-0.213,1.494-0.639C233.726,23.612,233.935,23.098,233.935,22.495z M233.113,23.991h-0.671l-0.486-1.208h-0.715
		v1.208h-0.639v-2.988h1.386c0.38,0,0.662,0.083,0.848,0.248c0.186,0.165,0.279,0.378,0.279,0.639c0,0.372-0.185,0.635-0.554,0.788
		L233.113,23.991z M231.242,22.309h0.656c0.372,0,0.559-0.143,0.559-0.427c0-0.272-0.171-0.408-0.511-0.408h-0.704V22.309z"/>
</g>
<g>
	<g>
		<path class="st0" d="M106.216,52.505c0,0.049-0.016,0.091-0.049,0.127c-0.032,0.037-0.077,0.055-0.133,0.055h-1.475
			c-0.065,0-0.115-0.014-0.151-0.042c-0.037-0.029-0.067-0.079-0.091-0.151l-1.39-3.53c-0.024-0.057-0.061-0.097-0.109-0.121
			c-0.049-0.024-0.121-0.036-0.218-0.036h-1.451c-0.097,0-0.145,0.045-0.145,0.133v3.494c0,0.089-0.023,0.153-0.067,0.193
			c-0.045,0.041-0.115,0.061-0.212,0.061h-1.282c-0.089,0-0.149-0.018-0.181-0.055c-0.032-0.036-0.048-0.09-0.048-0.163v-8.548
			c0-0.137,0.06-0.205,0.181-0.205h3.639c1.039,0,1.845,0.21,2.418,0.629c0.572,0.419,0.859,1.015,0.859,1.789
			c0,0.604-0.161,1.108-0.484,1.511c-0.322,0.403-0.725,0.689-1.209,0.859c-0.065,0.024-0.081,0.077-0.049,0.157l1.62,3.735
			C106.208,52.42,106.216,52.457,106.216,52.505z M104.462,46.266c0-0.435-0.135-0.765-0.405-0.991
			c-0.27-0.226-0.647-0.339-1.13-0.339h-1.705c-0.081,0-0.137,0.012-0.169,0.036c-0.032,0.025-0.048,0.069-0.048,0.133v2.285
			c0,0.065,0.012,0.111,0.036,0.139c0.024,0.029,0.064,0.043,0.121,0.043h1.62C103.902,47.572,104.462,47.137,104.462,46.266z"/>
		<path class="st0" d="M108.858,50.867c0.153,0.262,0.365,0.468,0.635,0.616c0.27,0.149,0.566,0.224,0.889,0.224
			c0.331,0,0.631-0.07,0.901-0.212c0.27-0.141,0.526-0.36,0.768-0.659c0.04-0.04,0.073-0.06,0.097-0.06
			c0.024,0,0.061,0.012,0.109,0.036l0.738,0.326c0.056,0.025,0.084,0.061,0.084,0.109c0,0.024-0.016,0.06-0.048,0.109
			c-0.363,0.524-0.764,0.897-1.203,1.118c-0.44,0.222-0.981,0.332-1.626,0.332c-0.613,0-1.163-0.137-1.65-0.411
			c-0.488-0.274-0.869-0.657-1.142-1.148c-0.274-0.492-0.411-1.052-0.411-1.681c0-0.677,0.141-1.274,0.424-1.789
			c0.282-0.516,0.665-0.915,1.148-1.197c0.484-0.282,1.019-0.424,1.608-0.424c0.604,0,1.139,0.133,1.602,0.399
			c0.464,0.266,0.822,0.651,1.076,1.155c0.254,0.504,0.381,1.102,0.381,1.795v0.049c0,0.08-0.012,0.137-0.036,0.169
			c-0.025,0.033-0.077,0.053-0.157,0.061h-4.28c-0.089,0-0.133,0.065-0.133,0.193C108.629,50.308,108.705,50.605,108.858,50.867z
			 M111.494,48.89c0.08,0,0.135-0.01,0.163-0.03c0.028-0.02,0.043-0.067,0.043-0.139c0-0.258-0.057-0.508-0.169-0.749
			c-0.113-0.242-0.28-0.44-0.502-0.592c-0.222-0.153-0.486-0.23-0.792-0.23c-0.476,0-0.861,0.167-1.155,0.502
			c-0.294,0.335-0.437,0.748-0.429,1.239H111.494z"/>
		<path class="st0" d="M115.871,52.807c-0.612,0-1.098-0.163-1.457-0.49c-0.359-0.326-0.538-0.751-0.538-1.276
			c0-0.669,0.298-1.2,0.895-1.596c0.596-0.394,1.43-0.612,2.503-0.653l0.604-0.036c0.129-0.017,0.193-0.077,0.193-0.181v-0.278
			c0-0.355-0.107-0.631-0.32-0.828c-0.214-0.197-0.506-0.296-0.877-0.296c-0.612,0-1.084,0.266-1.414,0.798
			c-0.025,0.032-0.047,0.058-0.067,0.078c-0.02,0.021-0.047,0.031-0.079,0.031c-0.04,0-0.073-0.004-0.097-0.012l-1.015-0.254
			c-0.065-0.016-0.097-0.052-0.097-0.109c0-0.04,0.016-0.093,0.049-0.157c0.21-0.451,0.554-0.796,1.033-1.033
			c0.48-0.238,1.066-0.357,1.759-0.357c0.902,0,1.565,0.177,1.989,0.532c0.423,0.355,0.635,0.854,0.635,1.499v4.256
			c0,0.089-0.014,0.151-0.042,0.187c-0.029,0.037-0.083,0.055-0.163,0.055h-1.027c-0.073,0-0.125-0.024-0.157-0.073
			c-0.032-0.048-0.057-0.121-0.073-0.218l-0.012-0.363c-0.008-0.072-0.036-0.109-0.085-0.109c-0.024,0-0.077,0.033-0.157,0.097
			C117.289,52.545,116.628,52.807,115.871,52.807z M118.029,49.603c-0.029-0.032-0.075-0.048-0.139-0.048l-0.496,0.036
			c-0.564,0.041-1.033,0.167-1.408,0.381s-0.562,0.506-0.562,0.877c0,0.274,0.099,0.492,0.296,0.653
			c0.197,0.161,0.462,0.242,0.792,0.242c0.419,0,0.786-0.129,1.1-0.387c0.306-0.242,0.46-0.488,0.46-0.738v-0.858
			C118.071,49.688,118.057,49.635,118.029,49.603z"/>
		<path class="st0" d="M125.2,52.469V52.07c0-0.073-0.02-0.109-0.06-0.109c-0.024,0-0.057,0.02-0.097,0.06
			c-0.234,0.226-0.494,0.413-0.78,0.562s-0.635,0.224-1.046,0.224c-0.5,0-0.943-0.123-1.33-0.368
			c-0.387-0.246-0.691-0.612-0.913-1.101c-0.222-0.487-0.332-1.086-0.332-1.795c0-0.661,0.119-1.249,0.356-1.765
			s0.562-0.915,0.973-1.197s0.871-0.424,1.378-0.424c0.338,0,0.635,0.055,0.889,0.163c0.254,0.109,0.498,0.268,0.731,0.478
			c0.04,0.04,0.085,0.06,0.133,0.06c0.049,0,0.073-0.052,0.073-0.157v-2.793c0-0.129,0.056-0.193,0.169-0.193h1.221
			c0.121,0,0.181,0.069,0.181,0.205v8.535c0,0.081-0.018,0.139-0.055,0.175c-0.036,0.037-0.103,0.055-0.199,0.055h-1.064
			C125.276,52.686,125.2,52.613,125.2,52.469z M124.541,47.36c-0.205-0.109-0.438-0.163-0.695-0.163
			c-0.484,0-0.873,0.195-1.167,0.586s-0.441,0.969-0.441,1.735c0,0.774,0.143,1.346,0.429,1.717
			c0.286,0.371,0.667,0.556,1.142,0.556c0.25,0,0.48-0.058,0.689-0.175c0.21-0.117,0.375-0.268,0.496-0.453
			c0.121-0.185,0.181-0.375,0.181-0.568v-2.732C124.958,47.637,124.747,47.47,124.541,47.36z"/>
		<path class="st0" d="M130.725,52.638c-0.032-0.033-0.048-0.089-0.048-0.169v-5.984c0-0.137,0.056-0.205,0.169-0.205h1.197
			c0.113,0,0.169,0.06,0.169,0.181v0.629c0,0.048,0.012,0.077,0.036,0.085c0.025,0.008,0.057-0.004,0.097-0.037
			c0.363-0.33,0.705-0.578,1.028-0.743c0.322-0.165,0.665-0.248,1.027-0.248c0.435,0,0.802,0.103,1.1,0.308
			c0.298,0.205,0.504,0.474,0.616,0.804c0.016,0.025,0.037,0.037,0.061,0.037c0.032,0,0.068-0.02,0.109-0.061
			c0.717-0.717,1.43-1.076,2.14-1.076c0.572,0,1.023,0.169,1.354,0.508c0.33,0.339,0.496,0.806,0.496,1.403v4.364
			c0,0.169-0.085,0.254-0.254,0.254h-1.113c-0.072,0-0.125-0.016-0.157-0.048c-0.033-0.033-0.049-0.089-0.049-0.169V48.31
			c0-0.314-0.081-0.558-0.242-0.731c-0.161-0.173-0.395-0.26-0.701-0.26c-0.25,0-0.492,0.067-0.725,0.199
			c-0.234,0.133-0.444,0.292-0.629,0.478c-0.097,0.105-0.145,0.222-0.145,0.35v4.086c0,0.169-0.085,0.254-0.254,0.254h-1.112
			c-0.137,0-0.205-0.073-0.205-0.218V48.31c0-0.314-0.079-0.558-0.236-0.731c-0.157-0.173-0.393-0.26-0.707-0.26
			c-0.266,0-0.514,0.065-0.744,0.193c-0.23,0.129-0.482,0.338-0.756,0.629v4.304c0,0.089-0.02,0.151-0.06,0.187
			c-0.041,0.037-0.113,0.055-0.218,0.055h-1.076C130.814,52.686,130.757,52.67,130.725,52.638z"/>
		<path class="st0" d="M142.845,52.39c-0.484-0.278-0.859-0.667-1.125-1.167c-0.266-0.5-0.399-1.068-0.399-1.705
			c0-0.653,0.137-1.235,0.411-1.747c0.274-0.512,0.653-0.909,1.136-1.191s1.031-0.424,1.644-0.424c0.621,0,1.173,0.143,1.656,0.43
			c0.484,0.286,0.859,0.683,1.124,1.191c0.266,0.508,0.399,1.084,0.399,1.729c0,0.637-0.135,1.205-0.405,1.705
			c-0.27,0.5-0.647,0.891-1.13,1.173c-0.484,0.282-1.036,0.423-1.656,0.423C143.881,52.807,143.329,52.668,142.845,52.39z
			 M145.692,51.151c0.27-0.387,0.405-0.943,0.405-1.669c0-0.733-0.137-1.298-0.411-1.693c-0.274-0.395-0.665-0.592-1.173-0.592
			c-0.508,0-0.901,0.197-1.178,0.592c-0.278,0.395-0.418,0.959-0.418,1.693c0,0.725,0.139,1.282,0.418,1.669
			c0.278,0.386,0.671,0.58,1.178,0.58C145.029,51.731,145.422,51.537,145.692,51.151z"/>
		<path class="st0" d="M148.788,52.469v-5.984c0-0.137,0.056-0.205,0.169-0.205h1.173c0.113,0,0.169,0.06,0.169,0.181v0.738
			c0,0.065,0.02,0.097,0.06,0.097c0.025,0,0.057-0.02,0.097-0.061c0.266-0.338,0.56-0.602,0.883-0.792
			c0.322-0.189,0.637-0.284,0.943-0.284c0.29,0,0.435,0.065,0.435,0.193v1.161c0,0.113-0.053,0.161-0.157,0.145
			c-0.226-0.056-0.476-0.084-0.75-0.084c-0.21,0-0.429,0.056-0.659,0.169c-0.23,0.113-0.419,0.26-0.568,0.442
			c-0.149,0.181-0.224,0.368-0.224,0.562v3.7c0,0.161-0.093,0.242-0.278,0.242h-1.076C148.861,52.686,148.788,52.613,148.788,52.469
			z"/>
		<path class="st0" d="M155.072,50.867c0.153,0.262,0.365,0.468,0.635,0.616c0.27,0.149,0.566,0.224,0.889,0.224
			c0.331,0,0.631-0.07,0.901-0.212c0.27-0.141,0.526-0.36,0.768-0.659c0.04-0.04,0.073-0.06,0.097-0.06s0.061,0.012,0.109,0.036
			l0.738,0.326c0.056,0.025,0.084,0.061,0.084,0.109c0,0.024-0.016,0.06-0.048,0.109c-0.363,0.524-0.764,0.897-1.203,1.118
			c-0.44,0.222-0.981,0.332-1.626,0.332c-0.613,0-1.163-0.137-1.65-0.411c-0.488-0.274-0.869-0.657-1.142-1.148
			c-0.274-0.492-0.411-1.052-0.411-1.681c0-0.677,0.141-1.274,0.424-1.789c0.282-0.516,0.665-0.915,1.148-1.197
			s1.019-0.424,1.608-0.424c0.604,0,1.139,0.133,1.602,0.399c0.464,0.266,0.822,0.651,1.076,1.155
			c0.254,0.504,0.381,1.102,0.381,1.795v0.049c0,0.08-0.012,0.137-0.036,0.169c-0.025,0.033-0.077,0.053-0.157,0.061h-4.28
			c-0.089,0-0.133,0.065-0.133,0.193C154.843,50.308,154.919,50.605,155.072,50.867z M157.708,48.89c0.08,0,0.135-0.01,0.163-0.03
			c0.028-0.02,0.043-0.067,0.043-0.139c0-0.258-0.057-0.508-0.169-0.749c-0.113-0.242-0.28-0.44-0.502-0.592
			c-0.222-0.153-0.486-0.23-0.792-0.23c-0.476,0-0.861,0.167-1.155,0.502c-0.294,0.335-0.437,0.748-0.429,1.239H157.708z"/>
		<path class="st0" d="M162.127,52.432c0,0.089-0.024,0.153-0.073,0.193c-0.048,0.041-0.125,0.061-0.23,0.061h-1.221
			c-0.089,0-0.151-0.018-0.187-0.055c-0.036-0.036-0.055-0.09-0.055-0.163v-1.366c0-0.137,0.057-0.205,0.169-0.205h1.426
			c0.113,0,0.169,0.061,0.169,0.181V52.432z"/>
		<path class="st0" d="M170.348,45.088c-0.29-0.141-0.661-0.212-1.112-0.212c-0.532,0-0.941,0.103-1.227,0.308
			c-0.286,0.205-0.429,0.486-0.429,0.84c0,0.492,0.358,0.851,1.076,1.076l1.861,0.556c1.394,0.42,2.092,1.245,2.092,2.478
			c0,0.54-0.141,1.012-0.423,1.415c-0.282,0.403-0.683,0.713-1.203,0.931c-0.52,0.218-1.135,0.326-1.843,0.326
			c-0.79,0-1.496-0.135-2.116-0.405c-0.62-0.27-1.092-0.651-1.414-1.142c-0.032-0.081-0.048-0.129-0.048-0.145
			c0-0.064,0.04-0.125,0.121-0.181l0.761-0.532c0.089-0.048,0.157-0.073,0.206-0.073c0.064,0,0.116,0.029,0.157,0.085
			c0.314,0.411,0.631,0.701,0.949,0.871c0.318,0.169,0.743,0.254,1.275,0.254c0.58,0,1.036-0.097,1.366-0.29
			c0.33-0.193,0.496-0.488,0.496-0.883c0-0.258-0.083-0.476-0.248-0.653c-0.165-0.177-0.458-0.334-0.877-0.472l-1.825-0.556
			c-0.669-0.201-1.181-0.522-1.536-0.961c-0.355-0.439-0.532-0.933-0.532-1.481c0-0.516,0.137-0.973,0.411-1.372
			c0.274-0.399,0.663-0.711,1.167-0.937c0.503-0.226,1.086-0.338,1.747-0.338c0.637,0,1.223,0.111,1.759,0.332
			c0.536,0.222,0.961,0.526,1.276,0.913c0.048,0.065,0.072,0.117,0.072,0.157c0,0.04-0.024,0.081-0.072,0.121l-0.859,0.641
			c-0.032,0.025-0.065,0.037-0.097,0.037c-0.041,0-0.097-0.041-0.169-0.121C170.892,45.424,170.638,45.229,170.348,45.088z"/>
		<path class="st0" d="M175.332,46.496v0.411c0,0.065,0.02,0.097,0.061,0.097c0.024,0,0.056-0.02,0.097-0.061
			c0.258-0.242,0.518-0.433,0.78-0.574c0.262-0.141,0.606-0.212,1.033-0.212c0.492,0,0.929,0.121,1.312,0.363
			s0.683,0.606,0.901,1.094c0.218,0.488,0.327,1.086,0.327,1.795c0,1.104-0.242,1.947-0.726,2.527
			c-0.483,0.58-1.124,0.871-1.922,0.871c-0.645,0-1.193-0.205-1.644-0.616c-0.081-0.065-0.133-0.097-0.157-0.097
			c-0.041,0-0.061,0.057-0.061,0.169v2.224c0,0.129-0.056,0.193-0.169,0.193h-1.233c-0.113,0-0.169-0.065-0.169-0.193V46.52
			c0-0.089,0.018-0.151,0.054-0.187c0.037-0.036,0.099-0.054,0.187-0.054h1.1C175.255,46.279,175.332,46.351,175.332,46.496z
			 M176.65,51.779c0.5,0,0.89-0.195,1.172-0.586c0.282-0.391,0.424-0.989,0.424-1.795c0-0.774-0.139-1.336-0.417-1.687
			c-0.278-0.351-0.655-0.526-1.131-0.526c-0.258,0-0.492,0.054-0.701,0.163s-0.373,0.248-0.49,0.418
			c-0.117,0.169-0.175,0.346-0.175,0.532v2.817C175.735,51.558,176.175,51.779,176.65,51.779z"/>
		<path class="st0" d="M182.522,50.867c0.153,0.262,0.365,0.468,0.635,0.616c0.27,0.149,0.566,0.224,0.889,0.224
			c0.331,0,0.631-0.07,0.901-0.212c0.27-0.141,0.526-0.36,0.768-0.659c0.04-0.04,0.073-0.06,0.097-0.06
			c0.024,0,0.061,0.012,0.109,0.036l0.738,0.326c0.056,0.025,0.084,0.061,0.084,0.109c0,0.024-0.016,0.06-0.048,0.109
			c-0.363,0.524-0.764,0.897-1.203,1.118c-0.44,0.222-0.981,0.332-1.626,0.332c-0.613,0-1.163-0.137-1.65-0.411
			c-0.488-0.274-0.869-0.657-1.142-1.148c-0.274-0.492-0.411-1.052-0.411-1.681c0-0.677,0.141-1.274,0.424-1.789
			c0.282-0.516,0.665-0.915,1.148-1.197s1.019-0.424,1.608-0.424c0.604,0,1.139,0.133,1.602,0.399
			c0.464,0.266,0.822,0.651,1.076,1.155c0.254,0.504,0.381,1.102,0.381,1.795v0.049c0,0.08-0.012,0.137-0.036,0.169
			c-0.025,0.033-0.077,0.053-0.157,0.061h-4.28c-0.089,0-0.133,0.065-0.133,0.193C182.292,50.308,182.368,50.605,182.522,50.867z
			 M185.158,48.89c0.08,0,0.135-0.01,0.163-0.03c0.028-0.02,0.043-0.067,0.043-0.139c0-0.258-0.057-0.508-0.169-0.749
			c-0.113-0.242-0.28-0.44-0.502-0.592c-0.222-0.153-0.486-0.23-0.792-0.23c-0.476,0-0.861,0.167-1.155,0.502
			c-0.294,0.335-0.437,0.748-0.429,1.239H185.158z"/>
		<path class="st0" d="M188.007,52.638c-0.032-0.033-0.048-0.089-0.048-0.169v-5.984c0-0.137,0.056-0.205,0.169-0.205h1.209
			c0.104,0,0.157,0.06,0.157,0.181v0.629c0,0.048,0.012,0.077,0.036,0.085c0.025,0.008,0.057-0.004,0.097-0.037
			c0.379-0.33,0.732-0.576,1.058-0.737c0.326-0.161,0.679-0.242,1.058-0.242c0.596,0,1.066,0.171,1.408,0.514
			c0.342,0.342,0.514,0.796,0.514,1.36v4.401c0,0.169-0.085,0.254-0.254,0.254h-1.112c-0.081,0-0.135-0.016-0.163-0.048
			c-0.029-0.033-0.043-0.089-0.043-0.169V48.31c0-0.314-0.087-0.558-0.26-0.731c-0.173-0.173-0.426-0.26-0.756-0.26
			c-0.282,0-0.538,0.065-0.768,0.193c-0.23,0.129-0.49,0.338-0.78,0.629v4.304c0,0.089-0.02,0.151-0.06,0.187
			c-0.041,0.037-0.113,0.055-0.218,0.055h-1.076C188.096,52.686,188.039,52.67,188.007,52.638z"/>
		<path class="st0" d="M199.294,52.469V52.07c0-0.073-0.02-0.109-0.06-0.109c-0.024,0-0.057,0.02-0.097,0.06
			c-0.234,0.226-0.494,0.413-0.78,0.562s-0.635,0.224-1.046,0.224c-0.5,0-0.943-0.123-1.33-0.368
			c-0.387-0.246-0.691-0.612-0.913-1.101c-0.222-0.487-0.332-1.086-0.332-1.795c0-0.661,0.119-1.249,0.356-1.765
			c0.238-0.516,0.562-0.915,0.973-1.197s0.871-0.424,1.378-0.424c0.338,0,0.635,0.055,0.889,0.163
			c0.254,0.109,0.498,0.268,0.731,0.478c0.04,0.04,0.085,0.06,0.133,0.06c0.049,0,0.073-0.052,0.073-0.157v-2.793
			c0-0.129,0.056-0.193,0.169-0.193h1.221c0.121,0,0.181,0.069,0.181,0.205v8.535c0,0.081-0.018,0.139-0.055,0.175
			c-0.036,0.037-0.103,0.055-0.199,0.055h-1.064C199.371,52.686,199.294,52.613,199.294,52.469z M198.636,47.36
			c-0.205-0.109-0.438-0.163-0.695-0.163c-0.484,0-0.873,0.195-1.167,0.586s-0.441,0.969-0.441,1.735
			c0,0.774,0.143,1.346,0.429,1.717c0.286,0.371,0.667,0.556,1.142,0.556c0.25,0,0.48-0.058,0.689-0.175
			c0.21-0.117,0.375-0.268,0.496-0.453c0.121-0.185,0.181-0.375,0.181-0.568v-2.732C199.053,47.637,198.841,47.47,198.636,47.36z"/>
		<path class="st0" d="M206.342,52.42c0,0.105-0.02,0.175-0.06,0.212c-0.041,0.037-0.113,0.055-0.218,0.055H205
			c-0.089,0-0.151-0.016-0.187-0.048c-0.036-0.033-0.054-0.089-0.054-0.169l0.036-8.548c0-0.137,0.061-0.205,0.181-0.205h1.197
			c0.113,0,0.169,0.065,0.169,0.193V52.42z"/>
		<path class="st0" d="M209.285,50.867c0.153,0.262,0.365,0.468,0.635,0.616c0.27,0.149,0.566,0.224,0.889,0.224
			c0.331,0,0.631-0.07,0.901-0.212c0.27-0.141,0.526-0.36,0.768-0.659c0.04-0.04,0.073-0.06,0.097-0.06
			c0.024,0,0.061,0.012,0.109,0.036l0.738,0.326c0.056,0.025,0.084,0.061,0.084,0.109c0,0.024-0.016,0.06-0.048,0.109
			c-0.363,0.524-0.764,0.897-1.203,1.118c-0.44,0.222-0.981,0.332-1.626,0.332c-0.613,0-1.163-0.137-1.65-0.411
			c-0.488-0.274-0.869-0.657-1.142-1.148c-0.274-0.492-0.411-1.052-0.411-1.681c0-0.677,0.141-1.274,0.424-1.789
			c0.282-0.516,0.665-0.915,1.148-1.197s1.019-0.424,1.608-0.424c0.604,0,1.139,0.133,1.602,0.399
			c0.464,0.266,0.822,0.651,1.076,1.155c0.254,0.504,0.381,1.102,0.381,1.795v0.049c0,0.08-0.012,0.137-0.036,0.169
			c-0.025,0.033-0.077,0.053-0.157,0.061h-4.28c-0.089,0-0.133,0.065-0.133,0.193C209.055,50.308,209.131,50.605,209.285,50.867z
			 M211.92,48.89c0.08,0,0.135-0.01,0.163-0.03c0.028-0.02,0.043-0.067,0.043-0.139c0-0.258-0.057-0.508-0.169-0.749
			c-0.113-0.242-0.28-0.44-0.502-0.592c-0.222-0.153-0.486-0.23-0.792-0.23c-0.476,0-0.861,0.167-1.155,0.502
			c-0.294,0.335-0.437,0.748-0.429,1.239H211.92z"/>
		<path class="st0" d="M218.038,47.342c-0.258-0.129-0.556-0.193-0.895-0.193c-0.355,0-0.647,0.073-0.877,0.218
			c-0.23,0.145-0.345,0.334-0.345,0.568c0,0.137,0.057,0.26,0.169,0.369c0.113,0.109,0.318,0.203,0.616,0.284l1.439,0.387
			c0.604,0.153,1.048,0.387,1.33,0.701c0.282,0.314,0.423,0.689,0.423,1.124c0,0.411-0.119,0.768-0.356,1.07
			c-0.238,0.302-0.568,0.534-0.991,0.695c-0.423,0.161-0.905,0.242-1.445,0.242c-0.669,0-1.253-0.123-1.753-0.368
			c-0.5-0.246-0.855-0.566-1.064-0.961c-0.032-0.065-0.048-0.109-0.048-0.133c0-0.049,0.024-0.089,0.072-0.121l0.713-0.362
			c0.057-0.032,0.105-0.049,0.145-0.049c0.032,0,0.068,0.02,0.109,0.061c0.193,0.274,0.429,0.492,0.707,0.653
			c0.278,0.161,0.639,0.242,1.082,0.242c0.411,0,0.747-0.071,1.009-0.212c0.262-0.141,0.393-0.337,0.393-0.586
			c0-0.169-0.071-0.312-0.212-0.43c-0.141-0.116-0.385-0.22-0.731-0.308l-1.233-0.29c-0.612-0.145-1.062-0.362-1.348-0.653
			c-0.286-0.29-0.43-0.661-0.43-1.112c0-0.395,0.107-0.746,0.321-1.052c0.213-0.306,0.52-0.544,0.919-0.713
			c0.399-0.169,0.864-0.254,1.396-0.254c0.572,0,1.08,0.107,1.523,0.321c0.443,0.214,0.77,0.486,0.979,0.816
			c0.04,0.065,0.061,0.117,0.061,0.157c0,0.041-0.021,0.073-0.061,0.097l-0.75,0.375c-0.048,0.017-0.077,0.024-0.084,0.024
			c-0.065,0-0.117-0.028-0.157-0.084C218.505,47.644,218.296,47.472,218.038,47.342z"/>
		<path class="st0" d="M224.356,47.342c-0.258-0.129-0.556-0.193-0.895-0.193c-0.355,0-0.647,0.073-0.877,0.218
			c-0.23,0.145-0.345,0.334-0.345,0.568c0,0.137,0.057,0.26,0.169,0.369c0.113,0.109,0.318,0.203,0.616,0.284l1.439,0.387
			c0.604,0.153,1.048,0.387,1.33,0.701c0.282,0.314,0.423,0.689,0.423,1.124c0,0.411-0.119,0.768-0.356,1.07
			c-0.238,0.302-0.568,0.534-0.991,0.695c-0.423,0.161-0.905,0.242-1.445,0.242c-0.669,0-1.253-0.123-1.753-0.368
			c-0.5-0.246-0.855-0.566-1.064-0.961c-0.032-0.065-0.048-0.109-0.048-0.133c0-0.049,0.024-0.089,0.072-0.121l0.713-0.362
			c0.057-0.032,0.105-0.049,0.145-0.049c0.032,0,0.068,0.02,0.109,0.061c0.193,0.274,0.429,0.492,0.707,0.653
			c0.278,0.161,0.639,0.242,1.082,0.242c0.411,0,0.747-0.071,1.009-0.212c0.262-0.141,0.393-0.337,0.393-0.586
			c0-0.169-0.071-0.312-0.212-0.43c-0.141-0.116-0.385-0.22-0.731-0.308l-1.233-0.29c-0.612-0.145-1.062-0.362-1.348-0.653
			c-0.286-0.29-0.43-0.661-0.43-1.112c0-0.395,0.107-0.746,0.321-1.052c0.213-0.306,0.52-0.544,0.919-0.713s0.864-0.254,1.396-0.254
			c0.572,0,1.08,0.107,1.523,0.321c0.443,0.214,0.77,0.486,0.979,0.816c0.04,0.065,0.061,0.117,0.061,0.157
			c0,0.041-0.021,0.073-0.061,0.097l-0.75,0.375c-0.048,0.017-0.077,0.024-0.084,0.024c-0.065,0-0.117-0.028-0.157-0.084
			C224.823,47.644,224.613,47.472,224.356,47.342z"/>
		<path class="st0" d="M229.091,52.432c0,0.089-0.024,0.153-0.073,0.193c-0.048,0.041-0.125,0.061-0.23,0.061h-1.221
			c-0.089,0-0.151-0.018-0.187-0.055c-0.036-0.036-0.055-0.09-0.055-0.163v-1.366c0-0.137,0.057-0.205,0.169-0.205h1.426
			c0.113,0,0.169,0.061,0.169,0.181V52.432z"/>
	</g>
</g>
</svg>
