<svg width="170" height="39" viewBox="0 0 170 39" fill="none" xmlns="http://www.w3.org/2000/svg">
<path d="M47.4077 1.28488C49.5796 1.28488 51.2046 1.75754 52.2827 2.70285C53.3686 3.64816 53.9116 4.99191 53.9116 6.7341C53.9116 7.51535 53.7983 8.26535 53.5717 8.9841C53.353 9.70285 52.9897 10.3435 52.4819 10.906C51.9819 11.4685 51.3139 11.9138 50.478 12.2419C49.6499 12.57 48.6264 12.7341 47.4077 12.7341H46.1069V18.4177H41.478V1.28488H47.4077ZM47.3022 5.02316H46.1069V8.96066H47.021C47.4194 8.96066 47.7905 8.89426 48.1342 8.76144C48.478 8.62082 48.7514 8.39816 48.9546 8.09348C49.1655 7.78098 49.271 7.36691 49.271 6.85129C49.271 6.31223 49.1108 5.87473 48.7905 5.53879C48.4702 5.19504 47.9741 5.02316 47.3022 5.02316ZM62.3491 4.90598C63.6382 4.90598 64.7514 5.13254 65.6889 5.58566C66.6264 6.03098 67.3491 6.70285 67.8569 7.60129C68.3647 8.49973 68.6186 9.62473 68.6186 10.9763V13.0154H60.4272C60.4663 13.7107 60.7241 14.281 61.2007 14.7263C61.685 15.1716 62.396 15.3943 63.3335 15.3943C64.1616 15.3943 64.9194 15.3122 65.6069 15.1482C66.3022 14.9841 67.0171 14.7302 67.7514 14.3864V17.6794C67.1108 18.0154 66.4116 18.2614 65.6538 18.4177C64.896 18.5739 63.9389 18.6521 62.7827 18.6521C61.4467 18.6521 60.2514 18.4138 59.1967 17.9372C58.1421 17.4607 57.31 16.7224 56.7007 15.7224C56.0991 14.7224 55.7983 13.4372 55.7983 11.8669C55.7983 10.2732 56.0717 8.96457 56.6186 7.94113C57.1655 6.90988 57.9311 6.14816 58.9155 5.65598C59.8999 5.15598 61.0444 4.90598 62.3491 4.90598ZM62.5132 8.02316C61.9741 8.02316 61.521 8.19504 61.1538 8.53879C60.7944 8.87473 60.5835 9.40598 60.521 10.1325H64.4585C64.4507 9.74191 64.3725 9.38644 64.2241 9.06613C64.0757 8.74582 63.8569 8.49191 63.5678 8.30441C63.2866 8.11691 62.935 8.02316 62.5132 8.02316ZM79.5171 4.90598C80.8842 4.90598 82.0014 5.29269 82.8686 6.06613C83.7358 6.83957 84.1694 8.07785 84.1694 9.78098V18.4177H79.5874V11.1755C79.5874 10.2927 79.4585 9.62863 79.2007 9.18332C78.9507 8.73019 78.5444 8.50363 77.9819 8.50363C77.1147 8.50363 76.5327 8.8591 76.2358 9.57004C75.9389 10.2732 75.7905 11.2849 75.7905 12.6052V18.4177H71.2085V5.14035H74.6655L75.2866 6.89816H75.4624C75.7436 6.47629 76.0796 6.11691 76.4702 5.82004C76.8608 5.52316 77.31 5.2966 77.8178 5.14035C78.3257 4.9841 78.8921 4.90598 79.5171 4.90598ZM100.201 5.14035V18.4177H96.7436L96.1694 16.7654H95.8999C95.6264 17.2107 95.2788 17.5739 94.8569 17.8552C94.4428 18.1286 93.9819 18.3279 93.4741 18.4529C92.9663 18.5857 92.4389 18.6521 91.8921 18.6521C91.0249 18.6521 90.2397 18.4841 89.5366 18.1482C88.8413 17.8122 88.2866 17.2849 87.8725 16.5661C87.4663 15.8474 87.2632 14.9216 87.2632 13.7888V5.14035H91.8452V12.3943C91.8452 13.2536 91.9663 13.9099 92.2085 14.363C92.4585 14.8083 92.8647 15.031 93.4272 15.031C94.0053 15.031 94.4507 14.8747 94.7632 14.5622C95.0835 14.2497 95.3061 13.7888 95.4311 13.1794C95.5561 12.57 95.6186 11.8279 95.6186 10.9529V5.14035H100.201ZM109.341 4.90598C110.63 4.90598 111.744 5.13254 112.681 5.58566C113.619 6.03098 114.341 6.70285 114.849 7.60129C115.357 8.49973 115.611 9.62473 115.611 10.9763V13.0154H107.419C107.458 13.7107 107.716 14.281 108.193 14.7263C108.677 15.1716 109.388 15.3943 110.326 15.3943C111.154 15.3943 111.912 15.3122 112.599 15.1482C113.294 14.9841 114.009 14.7302 114.744 14.3864V17.6794C114.103 18.0154 113.404 18.2614 112.646 18.4177C111.888 18.5739 110.931 18.6521 109.775 18.6521C108.439 18.6521 107.244 18.4138 106.189 17.9372C105.134 17.4607 104.302 16.7224 103.693 15.7224C103.091 14.7224 102.79 13.4372 102.79 11.8669C102.79 10.2732 103.064 8.96457 103.611 7.94113C104.158 6.90988 104.923 6.14816 105.908 5.65598C106.892 5.15598 108.037 4.90598 109.341 4.90598ZM109.505 8.02316C108.966 8.02316 108.513 8.19504 108.146 8.53879C107.787 8.87473 107.576 9.40598 107.513 10.1325H111.451C111.443 9.74191 111.365 9.38644 111.216 9.06613C111.068 8.74582 110.849 8.49191 110.56 8.30441C110.279 8.11691 109.927 8.02316 109.505 8.02316ZM122.783 18.4177H118.201V0.183319H122.783V18.4177ZM8.88815 38.4177H4.25925V25.07H0.0756531V21.2849H13.06V25.07H8.88815V38.4177ZM19.8217 20.1833V22.7732C19.8217 23.7575 19.7983 24.5857 19.7514 25.2575C19.7124 25.9216 19.6733 26.4294 19.6342 26.781H19.8452C20.1342 26.32 20.4624 25.9529 20.8296 25.6794C21.1967 25.406 21.603 25.2107 22.0483 25.0935C22.4936 24.9685 22.978 24.906 23.5014 24.906C24.3764 24.906 25.1655 25.0739 25.8686 25.4099C26.5796 25.7458 27.146 26.2732 27.5678 26.9919C27.9897 27.7029 28.2007 28.6325 28.2007 29.781V38.4177H23.5952V31.1755C23.5952 30.2927 23.4663 29.6286 23.2085 29.1833C22.9507 28.7302 22.5522 28.5036 22.0132 28.5036C21.4585 28.5036 21.021 28.6638 20.7007 28.9841C20.3803 29.2966 20.1538 29.7575 20.021 30.3669C19.8882 30.9685 19.8217 31.7068 19.8217 32.5818V38.4177H15.2397V20.1833H19.8217ZM37.2944 24.906C38.5835 24.906 39.6967 25.1325 40.6342 25.5857C41.5717 26.031 42.2944 26.7029 42.8022 27.6013C43.31 28.4997 43.5639 29.6247 43.5639 30.9763V33.0154H35.3725C35.4116 33.7107 35.6694 34.281 36.146 34.7263C36.6303 35.1716 37.3413 35.3943 38.2788 35.3943C39.1069 35.3943 39.8647 35.3122 40.5522 35.1482C41.2475 34.9841 41.9624 34.7302 42.6967 34.3864V37.6794C42.0561 38.0154 41.3569 38.2614 40.5991 38.4177C39.8413 38.5739 38.8842 38.6521 37.728 38.6521C36.3921 38.6521 35.1967 38.4138 34.1421 37.9372C33.0874 37.4607 32.2553 36.7224 31.646 35.7224C31.0444 34.7224 30.7436 33.4372 30.7436 31.8669C30.7436 30.2732 31.0171 28.9646 31.5639 27.9411C32.1108 26.9099 32.8764 26.1482 33.8608 25.656C34.8452 25.156 35.9897 24.906 37.2944 24.906ZM37.4585 28.0232C36.9194 28.0232 36.4663 28.195 36.0991 28.5388C35.7397 28.8747 35.5288 29.406 35.4663 30.1325H39.4038C39.396 29.7419 39.3178 29.3864 39.1694 29.0661C39.021 28.7458 38.8022 28.4919 38.5132 28.3044C38.2319 28.1169 37.8803 28.0232 37.4585 28.0232ZM52.6577 21.2849H58.6342C61.1108 21.2849 62.8764 21.6521 63.9311 22.3864C64.9858 23.1208 65.5132 24.1755 65.5132 25.5505C65.5132 26.3005 65.3764 26.9372 65.103 27.4607C64.8374 27.9841 64.4975 28.3982 64.0835 28.7029C63.6772 29.0075 63.2592 29.2146 62.8296 29.3239V29.4411C63.2983 29.5583 63.7632 29.7536 64.2241 30.0271C64.6928 30.2927 65.0796 30.695 65.3842 31.2341C65.6967 31.7654 65.853 32.488 65.853 33.4021C65.853 34.4411 65.5874 35.3357 65.0561 36.0857C64.5327 36.8357 63.7827 37.4138 62.8061 37.82C61.8296 38.2185 60.6694 38.4177 59.3257 38.4177H52.6577V21.2849ZM57.2866 27.8591H58.6811C59.4467 27.8591 59.9858 27.7029 60.2983 27.3904C60.6108 27.07 60.7671 26.6833 60.7671 26.2302C60.7671 25.7614 60.5874 25.406 60.228 25.1638C59.8764 24.9138 59.3296 24.7888 58.5874 24.7888H57.2866V27.8591ZM57.2866 31.2458V34.8435H58.9155C59.7202 34.8435 60.2827 34.6716 60.603 34.3279C60.9233 33.9763 61.0835 33.5388 61.0835 33.0154C61.0835 32.7107 61.0132 32.4255 60.8725 32.1599C60.7397 31.8864 60.5092 31.6677 60.1811 31.5036C59.853 31.3318 59.3999 31.2458 58.8217 31.2458H57.2866ZM73.1421 38.4177H68.56V20.1833H73.1421V38.4177ZM82.7983 24.906C84.478 24.906 85.7905 25.3239 86.7358 26.1599C87.6811 26.988 88.1538 28.1716 88.1538 29.7107V38.4177H84.978L84.0991 36.6599H84.0053C83.6303 37.1286 83.2436 37.5114 82.8452 37.8083C82.4546 38.0974 82.0053 38.3083 81.4975 38.4411C80.9897 38.5818 80.3686 38.6521 79.6342 38.6521C78.8686 38.6521 78.1811 38.4958 77.5717 38.1833C76.9624 37.8708 76.4819 37.3982 76.1303 36.7654C75.7788 36.1325 75.603 35.3318 75.603 34.363C75.603 32.9411 76.0952 31.8864 77.0796 31.1989C78.0639 30.5114 79.4897 30.1247 81.3569 30.0388L83.5717 29.9685V29.781C83.5717 29.1872 83.4233 28.7654 83.1264 28.5154C82.8374 28.2654 82.4467 28.1404 81.9546 28.1404C81.4311 28.1404 80.8452 28.2341 80.1967 28.4216C79.5561 28.6013 78.9116 28.8357 78.2632 29.1247L76.9389 26.1013C77.7046 25.7107 78.5717 25.4138 79.5405 25.2107C80.5092 25.0075 81.5952 24.906 82.7983 24.906ZM83.5952 32.488L82.5405 32.5349C81.6967 32.5661 81.103 32.7146 80.7592 32.9802C80.4233 33.238 80.2553 33.6091 80.2553 34.0935C80.2553 34.5466 80.3764 34.8825 80.6186 35.1013C80.8608 35.3122 81.1811 35.4177 81.5796 35.4177C82.1342 35.4177 82.6069 35.2419 82.9975 34.8904C83.396 34.5388 83.5952 34.0818 83.5952 33.5193V32.488ZM97.3178 38.6521C95.9741 38.6521 94.8061 38.4138 93.8139 37.9372C92.8217 37.4529 92.0522 36.7107 91.5053 35.7107C90.9663 34.7029 90.6967 33.4138 90.6967 31.8435C90.6967 30.2341 90.9975 28.9177 91.5991 27.8943C92.2085 26.8708 93.0405 26.1169 94.0952 25.6325C95.1499 25.1482 96.3452 24.906 97.6811 24.906C98.4936 24.906 99.2632 24.9958 99.9897 25.1755C100.724 25.3552 101.404 25.6013 102.029 25.9138L100.681 29.3005C100.134 29.0583 99.6225 28.8669 99.146 28.7263C98.6772 28.5779 98.1889 28.5036 97.6811 28.5036C97.2202 28.5036 96.8139 28.6247 96.4624 28.8669C96.1108 29.1091 95.8374 29.4763 95.6421 29.9685C95.4467 30.4529 95.3491 31.07 95.3491 31.82C95.3491 32.5857 95.4467 33.2029 95.6421 33.6716C95.8452 34.1404 96.1225 34.4802 96.4741 34.6911C96.8335 34.9021 97.2436 35.0075 97.7046 35.0075C98.3686 35.0075 99.0288 34.906 99.685 34.7029C100.349 34.4919 100.978 34.2029 101.572 33.8357V37.4802C101.025 37.8396 100.408 38.1247 99.7202 38.3357C99.0327 38.5466 98.2319 38.6521 97.3178 38.6521ZM108.814 20.1833V27.3552C108.814 27.8943 108.79 28.4958 108.744 29.1599C108.705 29.8161 108.642 30.4138 108.556 30.9529H108.65C108.83 30.6794 109.056 30.3357 109.33 29.9216C109.603 29.5075 109.849 29.1638 110.068 28.8904L113.044 25.1404H118.154L113.548 30.7888L118.447 38.4177H113.208L110.302 33.6599L108.814 34.7966V38.4177H104.208V20.1833H108.814ZM132.462 21.2849C134.634 21.2849 136.259 21.7575 137.337 22.7029C138.423 23.6482 138.966 24.9919 138.966 26.7341C138.966 27.5154 138.853 28.2654 138.626 28.9841C138.408 29.7029 138.044 30.3435 137.537 30.906C137.037 31.4685 136.369 31.9138 135.533 32.2419C134.705 32.57 133.681 32.7341 132.462 32.7341H131.162V38.4177H126.533V21.2849H132.462ZM132.357 25.0232H131.162V28.9607H132.076C132.474 28.9607 132.845 28.8943 133.189 28.7614C133.533 28.6208 133.806 28.3982 134.009 28.0935C134.22 27.781 134.326 27.3669 134.326 26.8513C134.326 26.3122 134.165 25.8747 133.845 25.5388C133.525 25.195 133.029 25.0232 132.357 25.0232ZM147.404 24.906C148.693 24.906 149.806 25.1325 150.744 25.5857C151.681 26.031 152.404 26.7029 152.912 27.6013C153.419 28.4997 153.673 29.6247 153.673 30.9763V33.0154H145.482C145.521 33.7107 145.779 34.281 146.255 34.7263C146.74 35.1716 147.451 35.3943 148.388 35.3943C149.216 35.3943 149.974 35.3122 150.662 35.1482C151.357 34.9841 152.072 34.7302 152.806 34.3864V37.6794C152.165 38.0154 151.466 38.2614 150.708 38.4177C149.951 38.5739 148.994 38.6521 147.837 38.6521C146.501 38.6521 145.306 38.4138 144.251 37.9372C143.197 37.4607 142.365 36.7224 141.755 35.7224C141.154 34.7224 140.853 33.4372 140.853 31.8669C140.853 30.2732 141.126 28.9646 141.673 27.9411C142.22 26.9099 142.986 26.1482 143.97 25.656C144.955 25.156 146.099 24.906 147.404 24.906ZM147.568 28.0232C147.029 28.0232 146.576 28.195 146.208 28.5388C145.849 28.8747 145.638 29.406 145.576 30.1325H149.513C149.505 29.7419 149.427 29.3864 149.279 29.0661C149.13 28.7458 148.912 28.4919 148.623 28.3044C148.341 28.1169 147.99 28.0232 147.568 28.0232ZM164.572 24.906C165.939 24.906 167.056 25.2927 167.923 26.0661C168.79 26.8396 169.224 28.0779 169.224 29.781V38.4177H164.642V31.1755C164.642 30.2927 164.513 29.6286 164.255 29.1833C164.005 28.7302 163.599 28.5036 163.037 28.5036C162.169 28.5036 161.587 28.8591 161.29 29.57C160.994 30.2732 160.845 31.2849 160.845 32.6052V38.4177H156.263V25.1404H159.72L160.341 26.8982H160.517C160.798 26.4763 161.134 26.1169 161.525 25.82C161.915 25.5232 162.365 25.2966 162.873 25.1404C163.38 24.9841 163.947 24.906 164.572 24.906Z" fill="white"/>
</svg>
